<?xml version="1.0" standalone="no"?><!DOCTYPE svg PUBLIC "-//W3C//DTD SVG 1.1//EN" "http://www.w3.org/Graphics/SVG/1.1/DTD/svg11.dtd"><svg t="1694865704049" class="icon" viewBox="0 0 1058 1024" version="1.1" xmlns="http://www.w3.org/2000/svg" p-id="5003" xmlns:xlink="http://www.w3.org/1999/xlink" width="206.640625" height="200"><path d="M592.725333 220.3648l51.6096 0.136533-5.5296 2.935467 0.682667 0.1024c168.072533 22.869333 298.052267 167.185067 298.3936 341.333333v5.666134l-0.580267 0.648533c0.375467 7.099733 0.580267 14.267733 0.580267 21.504v4.949333l-3.2768 3.6864c-27.886933 31.402667-102.1952 46.455467-157.047467 46.455467-7.406933 0-14.4384-0.273067-20.957866-0.8192-34.884267 19.456-287.9488 156.672-471.381334 156.672-34.304 0-66.1504-4.778667-93.696-16.042667-46.353067-18.978133-70.826667-44.612267-72.704-76.1856-3.959467-65.4336 93.696-130.389333 128.785067-151.552l-0.1024 5.700267a348.672 348.672 0 0 1 1.9456-36.864l0.341333-3.003733a342.698667 342.698667 0 0 1 99.191467-204.868267 341.265067 341.265067 0 0 1 206.506667-98.542933l-2.594134-1.911467h39.8336zM144.827733 709.8368c1.262933 20.753067 20.2752 38.775467 56.558934 53.589333 24.3712 9.966933 52.872533 14.2336 83.797333 14.2336 169.301333 0 411.989333-128 455.441067-151.688533v-0.7168c-43.042133 12.458667-111.752533 18.602667-176.8448 18.602667-72.9088 0-141.346133-7.714133-164.386134-22.869334l-0.546133-0.068266h-1.024c-19.1488-0.6144-101.034667-8.0896-135.611733-33.8944l-3.822934-3.1744c-41.5744 25.6-116.292267 81.2032-113.5616 126.020266zM591.701333 249.002667l7.168-4.096c-90.999467 48.810667-142.4384 174.045867-169.5744 270.506666-8.362667 31.061333-12.731733 61.917867-15.018666 84.650667 18.432 19.0464 236.2368 30.037333 326.485333-2.048a700.757333 700.757333 0 0 0-3.925333-58.368c-10.581333-79.4624-43.349333-211.387733-145.134934-290.645333z m50.7904 5.7344c54.818133 53.1456 93.184 130.1504 111.889067 225.28 3.2768 16.725333 5.768533 32.8704 7.5776 47.9232 4.164267 29.3888 5.4272 52.906667 5.802667 66.4576 5.393067 0.273067 11.0592 0.341333 16.896 0.238933h-1.092267c2.6624 0 5.3248-0.1024 8.055467-0.238933l-6.9632 0.238933c3.2768-0.068267 6.621867-0.2048 9.966933-0.375467l-3.003733 0.136534 7.168-0.375467-4.164267 0.238933c44.2368-2.423467 94.3104-14.7456 115.9168-32.938666-13.2096-159.0272-125.6448-286.72-268.049067-306.5856z m-96.5632-4.8128l-7.2704 1.1264a319.863467 319.863467 0 0 0-262.690133 274.978133l0.1024-0.6144a319.249067 319.249067 0 0 0-1.979733 21.845333l0.341333-4.881066a321.024 321.024 0 0 0-0.6144 10.478933l0.273067-5.563733a327.338667 327.338667 0 0 0-0.512 15.121066c3.959467 4.949333 18.773333 12.014933 38.570666 18.261334 25.258667 7.168 56.763733 12.458667 76.5952 13.994666 2.321067-23.381333 6.929067-54.510933 15.428267-86.152533 24.3712-86.698667 67.8912-195.584 141.755733-258.594133z" fill="#000000" p-id="5004"></path></svg>