<?xml version="1.0" standalone="no"?><!DOCTYPE svg PUBLIC "-//W3C//DTD SVG 1.1//EN" "http://www.w3.org/Graphics/SVG/1.1/DTD/svg11.dtd"><svg t="1694865795700" class="icon" viewBox="0 0 1024 1024" version="1.1" xmlns="http://www.w3.org/2000/svg" p-id="16238" xmlns:xlink="http://www.w3.org/1999/xlink" width="200" height="200"><path d="M691.7824 630.496H168.1792a16.4544 16.4544 0 0 1-16.4672-16.4672 16.448 16.448 0 0 1 16.4672-16.4736h523.6032a16.4672 16.4672 0 1 1 0 32.9408z m-4.7552-106.4896H38.464a16.4544 16.4544 0 0 1-16.4672-16.4672 16.4544 16.4544 0 0 1 16.4672-16.4736h648.5568a16.4608 16.4608 0 0 1 16.4672 16.4736 16.448 16.448 0 0 1-16.4608 16.4672z" fill="" p-id="16239"></path><path d="M772.2048 658.0864a16.64 16.64 0 0 1-6.304-1.2416l-61.504-25.4848a16.5312 16.5312 0 0 1-8.9088-8.9088l-25.4848-61.5104a16.448 16.448 0 0 1 0-12.6144l25.4848-61.44a16.4416 16.4416 0 0 1 8.9088-8.9152l61.504-25.4784a16.448 16.448 0 0 1 12.6144 0l61.44 25.4784c4.032 1.6768 7.2512 4.8512 8.9216 8.9152l25.4784 61.44a16.448 16.448 0 0 1 0 12.6144l-25.4784 61.5104a16.5312 16.5312 0 0 1-8.9216 8.9088l-61.44 25.4848a16.672 16.672 0 0 1-6.3104 1.2416z m-48.8896-54.5536l48.896 20.2688 48.8384-20.2688 20.2688-48.896-20.2688-48.8384-48.8384-20.2688-48.896 20.2688-20.2688 48.8384 20.2688 48.896z" fill="" p-id="16240"></path><path d="M772.1408 623.8656c-2.1568 0-4.3136-0.4096-6.3744-1.2864l-37.184-15.4688a16.4736 16.4736 0 0 1-8.9152-8.9152l-15.4432-37.2544a16.5056 16.5056 0 0 1 0-12.6144l15.4432-37.2416a16.576 16.576 0 0 1 8.9152-8.9152l37.2544-15.4432a16.4864 16.4864 0 0 1 12.608 0l37.312 15.4432a16.5888 16.5888 0 0 1 8.9216 8.9152l15.4432 37.2416c1.664 4.032 1.664 8.5632 0 12.6144l-15.4432 37.2544a16.48 16.48 0 0 1-8.9216 8.9152l-37.28 15.5008a16.5504 16.5504 0 0 1-6.336 1.2544z m-24.64-44.5824l24.6464 10.2656 24.6976-10.2656 10.24-24.6464-10.24-24.6528-24.6976-10.2272-24.6464 10.2272-10.2336 24.6528 10.2336 24.6464zM772.7168 481.9264a16.3712 16.3712 0 0 1-10.9632-4.1792c-1.6768-1.5104-41.0176-37.1584-41.0176-83.1296 0-45.9776 39.3408-81.6192 41.0176-83.1296a16.4352 16.4352 0 0 1 21.9456 0c1.664 1.4784 41.0752 37.1584 41.0752 83.1296 0 45.9712-39.4112 81.6448-41.0752 83.1296a16.4096 16.4096 0 0 1-10.9824 4.1792z m0-133.728c-8.5824 10.9056-19.0464 27.9872-19.0464 46.4192 0 18.368 10.496 35.4816 19.072 46.4192 8.5952-10.9056 19.0784-27.9872 19.0784-46.4192 0.0128-18.3616-10.5088-35.4816-19.104-46.4192z" fill="" p-id="16241"></path><path d="M924.9536 600.0576c-45.9712 0-81.6256-39.3408-83.1296-41.0176a16.4928 16.4928 0 0 1 0-21.9392c1.472-1.6768 37.1648-41.0816 83.1296-41.0816s81.6512 39.4112 83.1232 41.0816a16.512 16.512 0 0 1 0 21.9392c-1.5168 1.6704-37.152 41.0176-83.1232 41.0176z m-46.4256-51.9808c10.9056 8.5888 27.9936 19.0464 46.432 19.0464 18.3616 0 35.4816-10.496 46.4192-19.0784-10.9056-8.5888-27.9872-19.072-46.4192-19.072-18.3808-0.0128-35.4944 10.5088-46.432 19.104z" fill="" p-id="16242"></path><path d="M841.9904 509.2736l-4.448-0.1024a16.544 16.544 0 0 1-15.5008-15.5008c-0.128-2.2528-2.7648-55.3024 29.7536-87.7888 26.9632-26.9568 67.2704-29.856 83.3536-29.856l4.4352 0.1024a16.5376 16.5376 0 0 1 15.5072 15.5008c0.128 2.2528 2.7712 55.3024-29.7536 87.7952-26.9632 26.9568-67.2704 29.8496-83.3472 29.8496z m79.392-99.3408c-14.5408 1.7024-33.4912 6.4256-46.2912 19.232-13.0304 13.0624-17.7344 32.5632-19.36 46.3296 13.7984-1.6448 33.2544-6.3104 46.3168-19.3728 12.9984-12.9856 17.6896-32.4224 19.3344-46.1888zM766.8672 803.3728a16.416 16.416 0 0 1-10.9696-4.1792c-1.6768-1.5104-41.024-37.1648-41.024-83.1296s39.3472-81.6128 41.024-83.1232a16.4288 16.4288 0 0 1 21.9328 0c1.6768 1.472 41.088 37.1584 41.088 83.1232s-39.4112 81.6512-41.088 83.1296a16.3456 16.3456 0 0 1-10.9632 4.1792z m0-133.728c-8.6016 10.9056-19.0464 27.9872-19.0464 46.4192 0 18.3744 10.4896 35.488 19.0656 46.4256 8.6016-10.9056 19.0784-27.9936 19.0784-46.4256 0.0128-18.3616-10.5024-35.4816-19.0976-46.4192zM614.7072 614.6624c-45.9776 0-81.6512-39.4112-83.1296-41.088a16.4864 16.4864 0 0 1 0-21.9328c1.504-1.6768 37.1584-41.024 83.1296-41.024 45.9712 0 81.6128 39.3472 83.1168 41.024a16.4992 16.4992 0 0 1 0 21.9328c-1.472 1.6768-37.152 41.088-83.1168 41.088z m-46.4256-52.0192c10.9056 8.5952 27.9872 19.072 46.4256 19.072 18.3616 0 35.4752-10.5152 46.4192-19.104-10.912-8.5824-27.9872-19.0464-46.4192-19.0464-18.3744 0.0064-35.488 10.4896-46.4256 19.0784z" fill="" p-id="16243"></path><path d="M604.4992 734.656l-4.4288-0.096a16.5632 16.5632 0 0 1-15.5136-15.5136c-0.1344-2.2464-2.7712-55.3024 29.7536-87.7888 26.9632-26.9568 67.2768-29.8496 83.3536-29.8496l4.4352 0.096a16.5376 16.5376 0 0 1 15.5072 15.5072c0.1344 2.2528 2.7712 55.3088-29.7536 87.7952-26.9504 26.9568-67.264 29.8496-83.3536 29.8496z m79.3984-99.3344c-14.5408 1.7088-33.4848 6.432-46.2976 19.232-13.0176 13.0688-17.728 32.5632-19.36 46.3296 13.7984-1.6384 33.2608-6.304 46.3296-19.36 12.992-13.0048 17.6896-32.4352 19.328-46.2016zM934.1184 734.4064c-16.1152 0-56.4608-2.8992-83.4176-29.8624-32.4608-32.5184-29.8176-85.536-29.6896-87.7888a16.5376 16.5376 0 0 1 15.5008-15.5072l4.4416-0.096c16.0896 0 56.3968 2.8928 83.3472 29.8496 32.5312 32.4928 29.888 85.5424 29.7536 87.7952a16.5376 16.5376 0 0 1-15.5008 15.5072l-4.4352 0.1024z m-79.4304-99.4752c1.6448 13.7664 6.304 33.2992 19.3024 46.3232 13.1008 13.0624 32.5952 17.7536 46.4 19.36-1.6448-13.7664-6.336-33.2608-19.3664-46.3168-13.0688-13.0624-32.5632-17.7216-46.336-19.3664z m-152.5824-123.7952c-16.1088 0-56.4544-2.8864-83.4176-29.8496-32.512-32.5312-29.8112-85.5744-29.6896-87.8272a16.5248 16.5248 0 0 1 15.5008-15.4688l4.4416-0.096c16.0896 0 56.3968 2.8992 83.3536 29.856 32.5184 32.4928 29.8816 85.5424 29.7536 87.7952a16.5504 16.5504 0 0 1-15.5008 15.5072l-4.4416 0.0832z m-79.424-99.4624c1.6128 13.76 6.2656 33.2608 19.296 46.3232 13.0624 13.0624 32.5952 17.7216 46.3936 19.3664-1.632-13.7664-6.3296-33.2608-19.36-46.3296-13.0688-13.056-32.5632-17.7216-46.3296-19.36z" fill="" p-id="16244"></path></svg>