<?xml version="1.0" standalone="no"?><!DOCTYPE svg PUBLIC "-//W3C//DTD SVG 1.1//EN" "http://www.w3.org/Graphics/SVG/1.1/DTD/svg11.dtd"><svg t="1694866253738" class="icon" viewBox="0 0 2233 1024" version="1.1" xmlns="http://www.w3.org/2000/svg" p-id="17386" xmlns:xlink="http://www.w3.org/1999/xlink" width="436.1328125" height="200"><path d="M2032.029324 772.654545c-389.12-93.090909-419.84-136.843636-419.84-136.843636V495.243636A496.174545 496.174545 0 0 0 1116.945687 0a496.174545 496.174545 0 0 0-495.243636 495.243636v140.567273s-30.72 45.614545-419.84 136.843636c-272.756364 63.301818-493.381818 249.483636 915.083636 249.483637s1187.84-186.181818 915.083637-249.483637z" fill="#FFB000" p-id="17387"></path><path d="M2032.029324 772.654545c-389.12-93.090909-419.84-136.843636-419.84-136.843636V495.243636A496.174545 496.174545 0 0 0 1116.945687 0v1024c1408.465455-1.861818 1187.84-188.043636 915.083637-251.345455z" fill="#FFB000" p-id="17388"></path><path d="M621.702051 518.516364h990.487273v117.294545H621.702051z" fill="#FF4800" p-id="17389"></path><path d="M1116.945687 518.516364h495.243637v117.294545h-495.243637z" fill="#FF4800" p-id="17390"></path></svg>