<?xml version="1.0" standalone="no"?><!DOCTYPE svg PUBLIC "-//W3C//DTD SVG 1.1//EN" "http://www.w3.org/Graphics/SVG/1.1/DTD/svg11.dtd"><svg t="1694866259061" class="icon" viewBox="0 0 1793 1024" version="1.1" xmlns="http://www.w3.org/2000/svg" p-id="17531" xmlns:xlink="http://www.w3.org/1999/xlink" width="350.1953125" height="200"><path d="M1472.00189676 529.22914033c-553.21773574 175.01454667-1121.51751416 8.06470401-1121.51751416 8.06470313a280.48411494 280.48411494 0 0 0 59.804492-138.14732901s455.07971602 149.98254433 1007.9832419-0.62841797a275.66624004 275.66624004 0 0 0 53.72978026 130.71104385z" fill="#AADCF0" p-id="17532"></path><path d="M1418.2721165 398.51809648c-552.90352588 150.61096231-1007.9832419 0.62841885-1007.9832419 0.62841797 0-3.77051045 0.83789122-7.64575839 1.1521002-11.52100547v-52.36820683A273.57151201 273.57151201 0 0 1 685.01248681 62h458.53601748a273.46677539 273.46677539 0 0 1 273.57151201 273.57151201v52.36820596c0.31420898 3.35156484 0.62841885 7.01733955 1.1521002 10.57837851zM1573.28200897 865.53776357s-339.13650674 100.12801114-659.00151299 96.35749981c-319.86500625 3.77051045-658.89677636-96.35750068-658.89677636-96.35749981C116.60797176 821.23426075 126.13898496 755.66926602 126.13898496 755.66926602L334.3549746 555.30850713a190.41079922 190.41079922 0 0 0 16.12940801-18.01466367s568.2997793 166.94984268 1121.51751416-8.06470313a214.81438359 214.81438359 0 0 0 22.20411973 26.0793668l208.11125302 200.36075889s9.63574981 65.56499472-129.03526055 109.86849755z" fill="#375DAA" p-id="17533"></path></svg>