<?xml version="1.0" standalone="no"?><!DOCTYPE svg PUBLIC "-//W3C//DTD SVG 1.1//EN" "http://www.w3.org/Graphics/SVG/1.1/DTD/svg11.dtd"><svg t="1694866266035" class="icon" viewBox="0 0 1024 1024" version="1.1" xmlns="http://www.w3.org/2000/svg" p-id="17678" xmlns:xlink="http://www.w3.org/1999/xlink" width="200" height="200"><path d="M771.65037 593.076148c0.929185-36.693333 2.038519-91.799704 2.038519-147.332741 0-78.52563-87.286519-128.635259-185.524148-151.713185-98.228148-23.077926-201.955556-24.803556-268.344889 6.599111-66.389333 31.402667-56.32 250.652444-56.32 250.652445 158.416593-12.771556 307.361185 19.825778 402.251852 48.440889-175.881481 7.888593-375.087407 4.465778-430.848 10.789926-126.644148 14.373926-143.672889 62.795852-143.672889 62.795851 194.161778-37.290667 348.311704-14.800593 639.383704 0 103.092148 5.243259 187.410963-17.161481 202.088296-108.837925-33.194667 13.729185-91.543704 22.670222-161.052445 28.605629z" fill="#2c2c2c" p-id="17679"></path></svg>