<?xml version="1.0" standalone="no"?><!DOCTYPE svg PUBLIC "-//W3C//DTD SVG 1.1//EN" "http://www.w3.org/Graphics/SVG/1.1/DTD/svg11.dtd"><svg t="1694865717659" class="icon" viewBox="0 0 1232 1024" version="1.1" xmlns="http://www.w3.org/2000/svg" p-id="6391" xmlns:xlink="http://www.w3.org/1999/xlink" width="240.625" height="200"><path d="M484.5 593.7a32.8 51.7 0 1 0 65.6 0 32.8 51.7 0 1 0-65.6 0Z" fill="#FCBED7" p-id="6392"></path><path d="M517.3 658.6c-25.7 0-45.9-28.5-45.9-64.8s20.1-64.8 45.9-64.8 45.9 28.5 45.9 64.8-20.1 64.8-45.9 64.8z m0-103.4c-9.3 0-19.6 16.5-19.6 38.6s10.4 38.6 19.6 38.6 19.6-16.5 19.6-38.6c0.1-22.1-10.3-38.6-19.6-38.6z" fill="#1B1C26" p-id="6393"></path><path d="M484.5 724.3a32.8 51.7 0 1 0 65.6 0 32.8 51.7 0 1 0-65.6 0Z" fill="#FCBED7" p-id="6394"></path><path d="M517.3 789.1c-25.7 0-45.9-28.5-45.9-64.8s20.1-64.8 45.9-64.8 45.9 28.5 45.9 64.8-20.1 64.8-45.9 64.8z m0-103.4c-9.3 0-19.6 16.5-19.6 38.6s10.4 38.6 19.6 38.6 19.6-16.5 19.6-38.6-10.3-38.6-19.6-38.6z" fill="#1B1C26" p-id="6395"></path><path d="M517.3 672.1c-204.6 0-371.1-166.5-371.1-371.1h26.2c0 190.2 154.7 344.9 344.9 344.9S862.2 491.2 862.2 301h26.2c0 204.6-166.4 371.1-371.1 371.1z" fill="#1B1C26" p-id="6396"></path><path d="M400.4 659a51.7 32.8 0 1 0 103.4 0 51.7 32.8 0 1 0-103.4 0Z" fill="#FCBED7" p-id="6397"></path><path d="M452.1 704.9c-36.4 0-64.8-20.1-64.8-45.9s28.5-45.9 64.8-45.9 64.8 20.1 64.8 45.9-28.5 45.9-64.8 45.9z m0-65.5c-22.1 0-38.6 10.4-38.6 19.6s16.5 19.6 38.6 19.6 38.6-10.4 38.6-19.6-16.6-19.6-38.6-19.6z" fill="#1B1C26" p-id="6398"></path><path d="M530.9 659a51.7 32.8 0 1 0 103.4 0 51.7 32.8 0 1 0-103.4 0Z" fill="#FCBED7" p-id="6399"></path><path d="M582.6 704.9c-36.3 0-64.8-20.1-64.8-45.9s28.5-45.9 64.8-45.9 64.8 20.1 64.8 45.9-28.5 45.9-64.8 45.9z m0-65.5c-22.1 0-38.6 10.4-38.6 19.6s16.5 19.6 38.6 19.6 38.6-10.4 38.6-19.6-16.5-19.6-38.6-19.6z" fill="#1B1C26" p-id="6400"></path><path d="M519.6 656.8m-22.7 0a22.7 22.7 0 1 0 45.4 0 22.7 22.7 0 1 0-45.4 0Z" fill="#FFDA00" p-id="6401"></path><path d="M519.6 692.6c-19.7 0-35.8-16.1-35.8-35.8 0-19.7 16.1-35.8 35.8-35.8s35.8 16.1 35.8 35.8c0 19.7-16.1 35.8-35.8 35.8z m0-45.4c-5.3 0-9.6 4.3-9.6 9.6s4.3 9.6 9.6 9.6 9.6-4.3 9.6-9.6c-0.1-5.3-4.4-9.6-9.6-9.6z" fill="#1B1C26" p-id="6402"></path><path d="M870.8 270.7m-22.7 0a22.7 22.7 0 1 0 45.4 0 22.7 22.7 0 1 0-45.4 0Z" fill="#FFDA00" p-id="6403"></path><path d="M870.8 306.5c-19.7 0-35.8-16.1-35.8-35.8 0-19.7 16.1-35.8 35.8-35.8s35.8 16.1 35.8 35.8c0 19.8-16.1 35.8-35.8 35.8z m0-45.3c-5.3 0-9.6 4.3-9.6 9.6s4.3 9.6 9.6 9.6 9.6-4.3 9.6-9.6-4.3-9.6-9.6-9.6z" fill="#1B1C26" p-id="6404"></path><path d="M699.439724 656.009035a38.6 16.3 6.65 1 0 3.77521-32.38067 38.6 16.3 6.65 1 0-3.77521 32.38067Z" fill="#3FBC74" p-id="6405"></path><path d="M709.4 661c-3.5 0-7-0.2-10.5-0.6-10.8-1.3-20.8-4.3-28.2-8.4-8.5-4.8-12.8-10.9-12.1-17 1.6-13.3 24.4-17.9 45.1-15.5 20.7 2.4 41.8 12.2 40.3 25.5-1.3 10.9-17.3 16-34.6 16z m-16.6-33.5c-15.2 0-25 4.4-25.4 8.4-0.3 2.3 2.8 5.6 7.7 8.4 6.4 3.6 15.2 6.2 24.9 7.3 20.7 2.4 34.8-3 35.4-7.8 0.6-4.8-11.9-13.3-32.6-15.8-3.6-0.3-6.9-0.5-10-0.5z m46.8 16.8z" fill="#1B1C26" p-id="6406"></path><path d="M681.135591 563.176205a38.6 16.3 82.013 1 0 32.283767-4.529718 38.6 16.3 82.013 1 0-32.283767 4.529718Z" fill="#3FBC74" p-id="6407"></path><path d="M701.7 603.5c-12.5 0-22-20-24.8-39.8-2.9-20.6 1.2-43.6 14.5-45.4 13.2-1.9 23.5 19.1 26.4 39.7 2.9 20.6-1.2 43.6-14.5 45.4-0.6 0.1-1.1 0.1-1.6 0.1z m1-4.4zM693 527h-0.4c-4.8 0.7-9.9 14.8-7 35.5 2.9 20.7 11.5 32.9 16.5 32.2 4.8-0.7 9.9-14.8 7-35.5-2.8-20.1-11.3-32.2-16.1-32.2z" fill="#1B1C26" p-id="6408"></path><path d="M746.632224 504.471973a38.6 16.3 82.013 1 0 32.283767-4.529719 38.6 16.3 82.013 1 0-32.283767 4.529719Z" fill="#3FBC74" p-id="6409"></path><path d="M767.2 544.9c-5.6 0-11.1-4.1-15.7-11.8-4.3-7.3-7.6-17.2-9.1-28-2.9-20.6 1.2-43.5 14.5-45.4 6.2-0.9 12.3 3.3 17.3 11.7 4.3 7.3 7.6 17.2 9.1 28 2.9 20.6-1.2 43.5-14.5 45.4-0.6 0-1.1 0.1-1.6 0.1z m-8.8-76.6h-0.4c-4.8 0.7-9.9 14.8-7 35.5 1.4 9.6 4.2 18.4 7.9 24.7 2.9 4.9 6.2 7.9 8.6 7.5 4.8-0.7 9.9-14.8 7-35.5-1.4-9.6-4.2-18.4-7.9-24.7-2.7-4.6-5.9-7.5-8.2-7.5z" fill="#1B1C26" p-id="6410"></path><path d="M792.024633 423.226088a38.6 16.3 67.828 1 0 30.189397-12.302858 38.6 16.3 67.828 1 0-30.189397 12.302858Z" fill="#3FBC74" p-id="6411"></path><path d="M818.9 457.7c-4.7 0-10-2.7-15.2-7.9-6-6-11.6-14.8-15.7-24.9-7.9-19.3-9.5-42.5 2.9-47.6 12.4-5 27.5 12.7 35.3 32 4.1 10.1 6.3 20.3 6.2 28.8-0.1 9.8-3.3 16.5-9.1 18.8-1.4 0.5-2.9 0.8-4.4 0.8z m-23.5-72.5c-0.4 0-0.8 0.1-1.2 0.2-4.5 1.8-6 16.8 1.9 36.2 3.7 9 8.6 16.8 13.7 22 4 4 8 6.1 10.2 5.2 2.2-0.9 3.6-5.1 3.7-10.8 0.1-7.3-1.9-16.3-5.6-25.4-7.2-17.8-17.6-27.4-22.7-27.4z" fill="#1B1C26" p-id="6412"></path><path d="M821.68056 355.125691a38.6 16.3 53.642 1 0 26.253712-19.326215 38.6 16.3 53.642 1 0-26.253712 19.326215Z" fill="#3FBC74" p-id="6413"></path><path d="M852.9 382.3c-3.9 0-8.5-1.5-13.3-4.4-7.3-4.3-14.8-11.6-21.3-20.3-6.5-8.8-11.1-18.1-13.1-26.4-2.3-9.5-0.8-16.8 4.2-20.5 5-3.7 12.4-3 20.8 2.1 7.3 4.3 14.8 11.6 21.3 20.3 12.3 16.8 19.7 38.9 8.9 46.8-2.2 1.6-4.7 2.4-7.5 2.4z m-36-65.1c-1 0-1.7 0.2-2.3 0.6-1.9 1.4-2.2 5.8-0.9 11.4 1.7 7.1 5.8 15.4 11.6 23.2 5.8 7.8 12.4 14.2 18.7 18 4.9 2.9 9.3 3.9 11.1 2.5 3.9-2.9 1.7-17.8-10.7-34.6-5.8-7.8-12.4-14.2-18.7-18-3.4-2-6.6-3.1-8.8-3.1z" fill="#1B1C26" p-id="6414"></path><path d="M793.112785 593.118773a38.6 16.3 6.65 1 0 3.77521-32.38067 38.6 16.3 6.65 1 0-3.77521 32.38067Z" fill="#3FBC74" p-id="6415"></path><path d="M803.4 598.1c-3.5 0-7.2-0.2-10.8-0.6-10.8-1.3-20.8-4.2-28.2-8.4-8.5-4.8-12.8-10.9-12.1-17 0.7-6.2 6.3-11.1 15.7-13.8 8.1-2.4 18.6-3 29.4-1.7 10.8 1.3 20.8 4.3 28.2 8.4 8.5 4.8 12.8 10.9 12.1 17-0.7 6.2-6.3 11.1-15.7 13.8-5.4 1.5-11.7 2.3-18.6 2.3z m-16.9-33.5c-6 0-11.5 0.7-16 2-5.5 1.6-9.2 4.1-9.4 6.4-0.3 2.3 2.8 5.6 7.7 8.4 6.4 3.6 15.2 6.2 24.9 7.3 9.7 1.1 18.9 0.6 25.9-1.4 5.5-1.6 9.2-4.1 9.4-6.4 0.3-2.3-2.8-5.6-7.7-8.4-6.4-3.6-15.2-6.2-24.9-7.3-3.4-0.4-6.7-0.6-9.9-0.6z" fill="#1B1C26" p-id="6416"></path><path d="M820.833092 499.367253a16.3 38.6 79.496 1 0 75.906297-14.073882 16.3 38.6 79.496 1 0-75.906297 14.073882Z" fill="#3FBC74" p-id="6417"></path><path d="M846.4 514.1c-15 0-28.1-4.2-29.9-14-2.4-13.2 18-24.3 38.5-28.1 10.7-2 21.1-2.1 29.4-0.3 9.6 2.1 15.4 6.6 16.6 12.7 1.1 6.1-2.7 12.4-10.9 17.8-7.1 4.7-16.9 8.3-27.6 10.3-5.3 1.1-10.8 1.6-16.1 1.6z m24.9-34.9c-4.6 0-9.6 0.5-14.7 1.4-20.5 3.8-32.3 13.2-31.5 17.9 0.9 4.8 15.3 9.2 35.8 5.4 9.6-1.8 18.2-5 24.4-9 4.7-3.1 7.5-6.6 7.1-8.9-0.4-2.3-4.3-4.5-9.8-5.8-3.4-0.6-7.2-1-11.3-1z" fill="#1B1C26" p-id="6418"></path><path d="M862.446674 419.244343a16.3 38.6 62.911 1 0 68.731179-35.154872 16.3 38.6 62.911 1 0-68.731179 35.154872Z" fill="#3FBC74" p-id="6419"></path><path d="M875 428.7c-8.1 0-13.9-2.6-16.4-7.6-2.8-5.5-0.9-12.7 5.4-20.2 5.5-6.5 13.8-12.8 23.5-17.7 9.7-5 19.7-8 28.1-8.7 9.8-0.7 16.7 1.9 19.5 7.5 2.8 5.5 0.9 12.7-5.4 20.2-5.5 6.5-13.8 12.8-23.5 17.7-9.7 5-19.7 8-28.1 8.7-1.1 0.1-2.1 0.1-3.1 0.1z m43.6-45.5c-0.8 0-1.6 0-2.4 0.1-7.3 0.5-16.1 3.3-24.8 7.7s-16 10-20.8 15.6c-3.7 4.3-5.3 8.5-4.3 10.6 1.1 2.1 5.4 3.1 11.1 2.7 7.3-0.5 16.1-3.3 24.8-7.7s16-10 20.8-15.6c3.7-4.3 5.3-8.5 4.3-10.6-0.9-1.7-4.2-2.8-8.7-2.8z" fill="#1B1C26" p-id="6420"></path><path d="M878.934721 329.720723a16.3 38.6 62.911 1 0 68.731179-35.154872 16.3 38.6 62.911 1 0-68.731179 35.154872Z" fill="#3FBC74" p-id="6421"></path><path d="M891.3 339.2c-7.5 0-13.6-2.2-16.3-7.5-2.8-5.5-0.9-12.7 5.4-20.2 5.5-6.5 13.8-12.8 23.5-17.7 9.7-5 19.7-8 28.1-8.7 9.8-0.7 16.7 1.9 19.5 7.5 2.8 5.5 0.9 12.7-5.4 20.2-5.5 6.5-13.8 12.8-23.5 17.7-10.2 5.3-21.9 8.7-31.3 8.7z m43.7-45.5c-0.8 0-1.6 0-2.4 0.1-7.3 0.5-16.1 3.3-24.8 7.7s-16 10-20.8 15.6c-3.7 4.4-5.3 8.5-4.3 10.6 2.2 4.3 17.3 4.5 35.9-5 8.7-4.4 16-10 20.8-15.6 3.7-4.3 5.3-8.5 4.3-10.6-0.9-1.7-4.2-2.8-8.7-2.8z" fill="#1B1C26" p-id="6422"></path><path d="M153.2 270.7m-22.7 0a22.7 22.7 0 1 0 45.4 0 22.7 22.7 0 1 0-45.4 0Z" fill="#FFDA00" p-id="6423"></path><path d="M153.2 306.5c-19.7 0-35.8-16.1-35.8-35.8 0-19.7 16.1-35.8 35.8-35.8S189 251 189 270.7c0 19.8-16.1 35.8-35.8 35.8z m0-45.3c-5.3 0-9.6 4.3-9.6 9.6s4.3 9.6 9.6 9.6 9.6-4.3 9.6-9.6c-0.1-5.3-4.3-9.6-9.6-9.6z" fill="#1B1C26" p-id="6424"></path><path d="M284.35134 644.378188a16.3 38.6 83.35 1 0 76.680605-8.940068 16.3 38.6 83.35 1 0-76.680605 8.940068Z" fill="#3FBC74" p-id="6425"></path><path d="M314.3 661c-6.8 0-13.2-0.8-18.5-2.4-9.4-2.7-15-7.6-15.7-13.8-0.7-6.2 3.6-12.2 12.1-17 7.4-4.2 17.4-7.2 28.2-8.4 10.8-1.2 21.2-0.7 29.4 1.7 9.4 2.7 15 7.6 15.7 13.8 0.7 6.2-3.6 12.2-12.1 17-7.4 4.2-17.4 7.2-28.2 8.4-3.8 0.5-7.4 0.7-10.9 0.7z m16.9-33.5c-3.2 0-6.5 0.2-9.9 0.6-9.7 1.1-18.5 3.7-24.9 7.3-5 2.8-8 6.1-7.7 8.4 0.3 2.3 4 4.8 9.4 6.4 7.1 2 16.3 2.5 25.9 1.4 9.7-1.1 18.5-3.7 24.9-7.3 4.9-2.8 8-6.1 7.7-8.4-0.3-2.3-4-4.8-9.4-6.4-4.5-1.3-10.1-2-16-2z" fill="#1B1C26" p-id="6426"></path><path d="M321.30819 599.072843a16.3 38.6 7.978 1 0 10.714809-76.452814 16.3 38.6 7.978 1 0-10.714809 76.452814Z" fill="#3FBC74" p-id="6427"></path><path d="M322.3 603.5c-0.5 0-1.1 0-1.6-0.1-13.3-1.9-17.4-24.8-14.5-45.4 2.9-20.6 13.2-41.5 26.4-39.7 13.3 1.9 17.4 24.8 14.5 45.4-2.8 19.8-12.3 39.8-24.8 39.8z m-0.4-8.7c4.9 0.6 13.6-11.6 16.5-32.2 2.9-20.7-2.2-34.9-7-35.5-4.6-0.6-13.6 11.5-16.5 32.2-2.9 20.6 2.2 34.8 7 35.5z" fill="#1B1C26" p-id="6428"></path><path d="M255.833166 540.441564a16.3 38.6 7.978 1 0 10.714809-76.452814 16.3 38.6 7.978 1 0-10.714809 76.452814Z" fill="#3FBC74" p-id="6429"></path><path d="M256.8 544.9c-0.5 0-1.1 0-1.6-0.1-13.3-1.9-17.4-24.8-14.5-45.4 1.5-10.8 4.7-20.7 9.1-28 5-8.4 11.2-12.6 17.3-11.7 13.3 1.9 17.4 24.8 14.5 45.4-1.5 10.8-4.7 20.7-9.1 28-4.5 7.6-10 11.8-15.7 11.8z m8.8-76.6c-2.3 0-5.5 2.9-8.2 7.5-3.8 6.3-6.6 15.1-7.9 24.7-2.9 20.7 2.2 34.9 7 35.5 2.4 0.3 5.7-2.6 8.6-7.5 3.8-6.3 6.6-15.1 7.9-24.7 2.9-20.7-2.2-34.9-7-35.5h-0.4z" fill="#1B1C26" p-id="6430"></path><path d="M202.369776 452.800706a16.3 38.6 22.172 1 0 29.134375-71.491455 16.3 38.6 22.172 1 0-29.134375 71.491455Z" fill="#3FBC74" p-id="6431"></path><path d="M205.1 457.7c-1.5 0-3-0.3-4.4-0.9-5.8-2.3-9-9-9.1-18.8-0.1-8.5 2.1-18.7 6.2-28.8 7.9-19.3 22.9-37 35.3-32 12.4 5.1 10.8 28.3 2.9 47.6-4.1 10.1-9.7 18.9-15.7 24.9-5.2 5.3-10.5 8-15.2 8z m23.5-72.5c-5.1 0-15.5 9.6-22.7 27.4-3.7 9-5.6 18-5.6 25.4 0.1 5.7 1.5 9.9 3.7 10.8 2.1 0.9 6.1-1.2 10.2-5.2 5.2-5.2 10.1-13 13.7-22 7.9-19.3 6.4-34.3 1.9-36.2-0.4-0.2-0.8-0.2-1.2-0.2z" fill="#1B1C26" p-id="6432"></path><path d="M166.286418 376.457569a16.3 38.6 36.358 1 0 45.766377-62.171367 16.3 38.6 36.358 1 0-45.766377 62.171367Z" fill="#3FBC74" p-id="6433"></path><path d="M171.2 382.3c-2.8 0-5.4-0.8-7.5-2.3-10.8-7.9-3.5-30.1 8.9-46.8 6.5-8.8 14-16 21.3-20.3 8.4-5 15.8-5.7 20.8-2.1 5 3.7 6.5 10.9 4.2 20.5-2 8.2-6.6 17.6-13.1 26.4-6.5 8.8-14 16-21.3 20.3-4.9 2.9-9.4 4.3-13.3 4.3z m35.9-65c-2.2 0-5.4 1.1-8.8 3.1-6.3 3.8-13 10.1-18.7 18-12.4 16.8-14.6 31.7-10.7 34.6 1.9 1.4 6.2 0.4 11.1-2.5 6.3-3.8 13-10.1 18.7-18 5.8-7.8 9.9-16.1 11.6-23.2 1.3-5.5 1-10-0.9-11.4-0.5-0.5-1.3-0.6-2.3-0.6z" fill="#1B1C26" p-id="6434"></path><path d="M190.650565 581.476839a16.3 38.6 83.35 1 0 76.680605-8.940068 16.3 38.6 83.35 1 0-76.680605 8.940068Z" fill="#3FBC74" p-id="6435"></path><path d="M220.9 598.1c-17.3 0-33.3-5-34.5-16.1-1.6-13.3 19.6-23.1 40.3-25.5 20.7-2.4 43.5 2.2 45.1 15.5 0.7 6.2-3.6 12.2-12.1 17-7.4 4.2-17.4 7.2-28.2 8.4-3.6 0.5-7.1 0.7-10.6 0.7zM195 580.9c0.6 4.8 14.6 10.2 35.4 7.8 9.7-1.1 18.5-3.7 24.9-7.3 4.9-2.8 8-6.1 7.7-8.4-0.6-4.8-14.6-10.3-35.4-7.8-20.7 2.4-33.1 10.9-32.6 15.7z" fill="#1B1C26" p-id="6436"></path><path d="M162.241992 508.36714a38.6 16.3 10.504 1 0 5.943116-32.053695 38.6 16.3 10.504 1 0-5.943116 32.053695Z" fill="#3FBC74" p-id="6437"></path><path d="M177.6 514.1c-5.3 0-10.8-0.5-16.1-1.5-20.5-3.8-40.9-14.9-38.5-28.1 1.1-6.1 7-10.6 16.6-12.7 8.3-1.8 18.7-1.7 29.4 0.3s20.5 5.6 27.6 10.3c8.2 5.4 12 11.7 10.9 17.8-1.8 9.7-14.9 13.9-29.9 13.9z m-24.9-34.9c-4.1 0-7.9 0.4-11.2 1.1-5.6 1.2-9.4 3.5-9.8 5.8-0.9 4.8 10.9 14.1 31.5 17.9 20.5 3.8 34.9-0.7 35.8-5.4 0.4-2.3-2.4-5.8-7.1-8.9-6.1-4-14.8-7.2-24.3-9-5.3-1-10.3-1.5-14.9-1.5z" fill="#1B1C26" p-id="6438"></path><path d="M119.765503 416.077008a38.6 16.3 27.091 1 0 14.846206-29.023269 38.6 16.3 27.091 1 0-14.846206 29.023269Z" fill="#3FBC74" p-id="6439"></path><path d="M149.1 428.7c-9.4 0-21-3.5-31.3-8.7-9.7-5-18-11.3-23.5-17.7-6.3-7.5-8.2-14.7-5.4-20.2 2.8-5.5 9.8-8.1 19.5-7.5 8.5 0.6 18.4 3.7 28.1 8.7 9.7 5 18 11.3 23.5 17.7 6.3 7.5 8.2 14.7 5.4 20.2-2.7 5.3-8.7 7.5-16.3 7.5z m-43.7-45.5c-4.5 0-7.8 1-8.7 2.8-1.1 2.1 0.6 6.2 4.3 10.6 4.7 5.6 12.1 11.2 20.8 15.6 18.6 9.5 33.7 9.3 35.9 5 1.1-2.1-0.6-6.2-4.3-10.6-4.7-5.6-12.1-11.2-20.8-15.6-8.7-4.4-17.5-7.2-24.8-7.7-0.8 0-1.6-0.1-2.4-0.1z m-12.6 0.8z" fill="#1B1C26" p-id="6440"></path><path d="M103.269984 326.640332a38.6 16.3 27.091 1 0 14.846205-29.023269 38.6 16.3 27.091 1 0-14.846205 29.023269Z" fill="#3FBC74" p-id="6441"></path><path d="M132.7 339.2c-9.4 0-21-3.5-31.3-8.7-9.7-5-18-11.3-23.5-17.7-6.3-7.5-8.2-14.7-5.4-20.2 2.8-5.5 9.8-8.2 19.5-7.5 8.5 0.6 18.4 3.7 28.1 8.7 9.7 4.9 18 11.3 23.5 17.7 6.3 7.5 8.2 14.7 5.4 20.2-2.7 5.3-8.8 7.5-16.3 7.5zM89 293.7c-4.5 0-7.8 1-8.7 2.8-1.1 2.1 0.6 6.2 4.3 10.6 4.7 5.6 12.1 11.2 20.8 15.6 18.6 9.5 33.7 9.3 35.9 5 1.1-2.1-0.6-6.2-4.3-10.6-4.7-5.6-12.1-11.2-20.8-15.6-8.7-4.4-17.5-7.2-24.8-7.7-0.9 0-1.7-0.1-2.4-0.1z m-12.6 0.9z" fill="#1B1C26" p-id="6442"></path><path d="M1178.3 712.2c1.9 0 1.9-3 0-3-2 0-2 3 0 3z" fill="#FEF8FB" p-id="6443"></path><path d="M1231.2 780.2c1.9 0 1.9-3 0-3-2 0-2 3 0 3z" fill="#FEF8FB" p-id="6444"></path></svg>