<?xml version="1.0" standalone="no"?><!DOCTYPE svg PUBLIC "-//W3C//DTD SVG 1.1//EN" "http://www.w3.org/Graphics/SVG/1.1/DTD/svg11.dtd"><svg t="1694865697255" class="icon" viewBox="0 0 1024 1024" version="1.1" xmlns="http://www.w3.org/2000/svg" p-id="4849" xmlns:xlink="http://www.w3.org/1999/xlink" width="200" height="200"><path d="M881.6 676.8l-596.8-99.2 49.6-132.8c36.8-99.2 139.2-156.8 243.2-137.6l136 25.6c107.2 20.8 184 118.4 176 227.2l-8 116.8z" fill="#E95573" p-id="4850"></path><path d="M688 342.4s238.4-1.6 176 316.8c-46.4-11.2-180.8-24-180.8-24l17.6-166.4-12.8-126.4z" fill="#6C73CA" p-id="4851"></path><path d="M537.6 328c11.2 0 24 1.6 35.2 3.2l136 25.6c94.4 17.6 161.6 104 155.2 200l-6.4 89.6-536-89.6 38.4-102.4c27.2-76.8 99.2-126.4 177.6-126.4m0-25.6c-89.6 0-171.2 56-203.2 142.4l-49.6 132.8 596.8 99.2 8-118.4c8-108.8-68.8-208-176-227.2l-136-25.6c-12.8-3.2-27.2-3.2-40-3.2z" fill="#322E2C" p-id="4852"></path><path d="M684.8 331.2l-73.6-12.8 6.4-16c4.8-12.8 17.6-19.2 30.4-17.6l17.6 3.2c12.8 3.2 22.4 14.4 22.4 28.8l-3.2 14.4z" fill="#322E2C" p-id="4853"></path><path d="M705.6 620.8l-100.8 60.8c-150.4 91.2-342.4 72-472-46.4l176-81.6 396.8 67.2z" fill="#E95573" p-id="4854"></path><path d="M312 582.4l318.4 52.8-38.4 24c-57.6 35.2-124.8 52.8-192 52.8-78.4 0-153.6-24-217.6-70.4l129.6-59.2m-3.2-27.2l-176 81.6C208 704 304 739.2 400 739.2c70.4 0 142.4-19.2 204.8-57.6l100.8-60.8-396.8-65.6z" fill="#322E2C" p-id="4855"></path><path d="M691.2 625.6l-25.6-4.8c44.8-235.2-16-294.4-17.6-296l17.6-20.8c3.2 4.8 75.2 67.2 25.6 321.6z" fill="#322E2C" p-id="4856"></path></svg>