<?xml version="1.0" standalone="no"?><!DOCTYPE svg PUBLIC "-//W3C//DTD SVG 1.1//EN" "http://www.w3.org/Graphics/SVG/1.1/DTD/svg11.dtd"><svg t="1694865652444" class="icon" viewBox="0 0 1024 1024" version="1.1" xmlns="http://www.w3.org/2000/svg" p-id="4394" xmlns:xlink="http://www.w3.org/1999/xlink" width="200" height="200"><path d="M427.8 845.2c-13.6 0-26.7-1.1-38.9-3.5-35.8-7-56.8-21.9-98.7-51.6-26.2-18.6-62.1-44.1-115.9-77.6-66-41.1-103.8-41.7-124-34.9-20.9 7-27.4 23.1-27.6 23.8-1.9 4.9-7.2 7.6-12.3 6.2-5.1-1.4-8.2-6.4-7.2-11.6 0.8-4.3 3.5-9.1 7.8-14.3 2.7-3.6 6.3-7.6 11-11.4 47.2-43.3 169.4-104.6 217.7-128 4.5-18.1 22.7-85.5 69.4-192.5 58.7-134.3 244.7-155.1 334.8-147.2 106.7 9.2 214.2 99.6 261.3 180 45.3 77.4 28 252.3 7.2 294.1-1.5 3-6.1 12.2-14.8 13.2-9 1.1-40.7 0.6-94.2-1.4-41.1-1.5-61.6-2.3-72.3-3.2-6.6 7.1-20 18.8-46.7 40.9-20.4 16.9-59.7 48.6-93.6 70.7-46.8 30.4-109.1 48.3-163 48.3zM77.7 654c30 1.6 65.9 15.3 107.4 41.1 54.4 33.9 90.5 59.5 116.9 78.3 40.7 28.9 59.3 42.1 90.8 48.3 55.5 10.9 132.3-6.4 186.7-42 52.9-34.5 126.8-98 137.5-109.4 0-0.1 0.1-0.2 0.1-0.3 1.9-3.7 6.2-5.8 10.3-5.4 9.7 0.6 140.6 6.5 165.6 5 14.2-20.1 40-199.4-5.4-276.9-44.5-76-145.6-161.3-245.5-170-85.1-7.3-260.3 11.4-314.4 135.1-53.2 121.7-69.2 192.9-69.4 193.6-0.7 3.1-2.7 5.6-5.5 7-63 30.5-129.8 66.7-175.1 95.6z" fill="#231815" p-id="4395"></path><path d="M726.3 679.9c-0.4 0-0.8 0-1.2-0.1l-12.2-2.9c-54.1-12.7-180.7-42.4-276.8-78.2-101.8-37.9-190.9-42.4-191.8-42.5-2.8-0.1-5-2.5-4.8-5.3 0.1-2.8 2.4-5.1 5.3-4.8 0.9 0 91.5 4.6 194.9 43.1 95.5 35.5 221.7 65.1 275.6 77.8l12.2 2.9c2.7 0.6 4.4 3.4 3.8 6.1-0.6 2.3-2.7 3.9-5 3.9z" fill="#231815" p-id="4396"></path><path d="M336.5 568.9c-0.4 0-0.8 0-1.3-0.2-2.7-0.7-4.4-3.5-3.7-6.2 1.6-6.3 40.4-155.6 70.5-215.8 36.6-73.2 91.9-116.3 179.4-139.8 2.7-0.7 5.5 0.9 6.2 3.6 0.7 2.7-0.9 5.5-3.6 6.2-84.4 22.6-137.7 64.1-172.9 134.5-29.6 59.2-69.3 212.2-69.7 213.8-0.6 2.4-2.7 3.9-4.9 3.9zM672.5 667.2c-0.7 0-1.3-0.1-1.9-0.4-2.6-1.1-3.8-4-2.8-6.6 27.5-66.5 54.5-263.5 47.4-345.6-6.8-78.3-47.7-91.6-49.5-92.1-2.7-0.8-4.2-3.6-3.4-6.3 0.8-2.7 3.6-4.2 6.3-3.4 2 0.6 49.3 15.2 56.7 101 7.4 85-19.6 281.5-48.1 350.4-0.8 1.8-2.7 3-4.7 3z" fill="#231815" p-id="4397"></path><path d="M433.9 774.7c-54.4 0-98.2-26.2-158.4-74.2-65.4-52.1-155.6-64-167-64-2.8 0-5.1-2.3-5.1-5.1s2.3-5.1 5.1-5.1c19.9 0 110 15.9 173.3 66.3 67.4 53.7 113.3 79.3 177 70.1 66.3-9.5 189.6-89.6 204.8-104.3 2-1.9 5.2-1.9 7.2 0.1 1.9 2 1.9 5.2-0.1 7.2-16.2 15.6-140.7 97.1-210.4 107-9.1 1.4-17.9 2-26.4 2zM667.2 216.3c-2.8 0-5.1-2.3-5.1-5.1 0-10.5-8.5-19-19-19s-19 8.5-19 19c0 2.8-2.3 5.1-5.1 5.1s-5.1-2.3-5.1-5.1c0-16.1 13.1-29.2 29.2-29.2s29.2 13.1 29.2 29.2c0 2.8-2.3 5.1-5.1 5.1zM1003.4 632.1c-2.7 0-65.4-1.2-87.6-14.8-2.4-1.5-3.1-4.6-1.7-7 1.5-2.4 4.6-3.2 7-1.7 15.3 9.4 58.3 12.5 78.2 13.2l12-52.6c-14.6 0.5-50.6 0.1-94.4-13.2-2.7-0.8-4.2-3.7-3.4-6.3 0.8-2.7 3.6-4.2 6.3-3.4 54.2 16.4 97 12.4 97.4 12.4 1.6-0.2 3.2 0.5 4.3 1.7 1.1 1.2 1.5 2.9 1.1 4.5l-14.5 63.3c-0.2 2.3-2.3 3.9-4.7 3.9z" fill="#231815" p-id="4398"></path></svg>