<?xml version="1.0" standalone="no"?><!DOCTYPE svg PUBLIC "-//W3C//DTD SVG 1.1//EN" "http://www.w3.org/Graphics/SVG/1.1/DTD/svg11.dtd"><svg t="1694865677785" class="icon" viewBox="0 0 1024 1024" version="1.1" xmlns="http://www.w3.org/2000/svg" p-id="4686" xmlns:xlink="http://www.w3.org/1999/xlink" width="200" height="200"><path d="M30.72 716.16c-7.04 14.72 7.04 31.36 23.04 26.24 28.16-8.32 69.76-15.36 115.84-6.4 81.28 16 157.44 64.64 209.28 93.44 32 17.92 67.84 26.88 104.32 26.88 44.8 0 88.32-14.08 124.8-40.32l165.12-119.04c4.48-3.2 10.24-5.12 16-4.48l163.2 10.88c7.04 0.64 12.8-3.84 14.08-10.88 14.08-66.56 65.28-404.48-299.52-517.76-23.68-7.04-48-10.88-72.32-10.88-106.88 0.64-391.68 38.4-415.36 412.16 0 4.48-3.2 8.96-7.04 11.52-24.96 14.08-110.08 64-141.44 128.64z" fill="#B9D4DB" p-id="4687"></path><path d="M560.64 627.84c-22.4-7.04-44.16-14.08-65.28-21.12-78.08-26.24-218.24-30.08-218.24-30.08s0.64-205.44 103.68-317.44C448 186.24 597.76 164.48 597.76 164.48h18.56s-40.32 24.32-48.64 171.52c-10.24 164.48-7.04 291.84-7.04 291.84z" fill="#B9D4DB" p-id="4688"></path><path d="M382.72 771.2c-1.28 0-3.2-0.64-4.48-1.28-44.16-24.96-96-53.76-151.68-68.48-5.12-1.28-7.68-6.4-6.4-11.52 1.28-5.12 6.4-7.68 11.52-6.4 57.6 15.36 110.72 44.8 155.52 70.4 4.48 2.56 5.76 8.32 3.2 12.8-1.92 3.2-4.48 4.48-7.68 4.48zM188.16 693.76h-1.28c-9.6-1.28-19.84-1.28-29.44-1.28-5.12 0-8.96-3.84-9.6-8.96 0-5.12 3.84-8.96 8.96-9.6 10.88 0 21.76 0 32 1.28 5.12 0.64 8.96 5.12 8.32 10.24-0.64 5.12-4.48 8.32-8.96 8.32z" fill="#FFFFFF" p-id="4689"></path><path d="M616.32 167.68S576 192 567.68 339.2c-9.6 164.48-7.04 292.48-7.04 292.48 103.04 32 209.28 59.52 230.4 59.52 0 0 31.36-231.04-33.92-394.24-41.6-103.68-140.8-129.28-140.8-129.28" fill="#FFEDC4" p-id="4690"></path><path d="M967.04 709.76l-49.28-8.96c3.84-56.32 69.12-378.88-234.88-496.64l12.8-24.96c332.8 128.64 291.2 450.56 276.48 526.72 0.64 2.56-2.56 4.48-5.12 3.84z" fill="#93BAC1" p-id="4691"></path><path d="M656 167.68h-6.4c0-15.36-12.16-27.52-27.52-27.52s-27.52 12.16-27.52 27.52h-6.4c0-18.56 15.36-33.92 33.92-33.92s33.92 15.36 33.92 33.92z" fill="#3F4C75" p-id="4692"></path><path d="M184.32 584.96c20.48-384 313.6-419.2 418.56-419.84l0.64 2.56S453.76 188.8 386.56 262.4c-102.4 112-103.68 318.08-103.68 318.08l-97.92 6.4" fill="#FFEDC4" p-id="4693"></path><path d="M488.96 866.56c-37.76 0-75.52-9.6-108.8-28.16-7.04-3.84-14.08-8.32-21.76-12.8-48.64-28.16-115.2-66.56-184.96-80-44.8-8.96-85.12-1.92-111.36 5.76-10.88 3.2-22.4 0-30.08-8.96-7.04-8.96-8.96-20.48-3.84-30.72 33.92-69.12 125.44-120.96 147.2-132.48 10.88-175.36 78.08-298.88 200.96-367.36 98.56-55.04 204.8-56.96 246.4-55.04 11.52 0.64 23.04 1.92 33.28 5.12 392.96 109.44 339.84 464 325.12 533.76-2.56 10.88-12.8 18.56-23.68 17.92l-168.96-11.52-169.6 122.24c-37.76 27.52-82.56 42.24-129.92 42.24zM131.2 723.2c14.72 0 30.08 1.28 46.08 4.48 72.32 14.72 140.16 53.76 190.08 82.56 7.68 4.48 14.72 8.32 21.76 12.16 30.08 17.28 64.64 26.24 99.84 26.24 43.52 0 84.48-13.44 119.68-38.4l174.72-126.08 175.36 12.16c1.92 0 3.84-1.28 4.48-3.2 14.08-67.2 65.28-407.68-312.32-512.64-8.96-2.56-19.2-3.84-28.8-4.48-39.68-1.92-142.08 0-236.8 53.12-118.4 65.92-183.04 186.24-192 357.76v5.12l-4.48 2.56c-1.28 0.64-108.8 55.04-143.36 126.72-2.56 5.12 0.64 9.6 1.28 10.88 1.28 1.28 5.12 5.12 10.88 3.2 18.56-7.04 44.16-12.16 73.6-12.16z" fill="#3F4C75" p-id="4694"></path><path d="M796.8 699.52c-26.88 0-179.84-41.6-298.24-80.64-150.4-49.92-310.4-23.68-311.68-23.04-5.12 0.64-9.6-2.56-10.88-7.68-0.64-5.12 2.56-9.6 7.68-10.88 6.4-1.28 166.4-27.52 320.64 24.32 113.92 37.76 245.76 73.6 284.16 79.36 5.12-43.52 22.4-240-33.92-381.44-39.04-97.28-133.76-122.88-134.4-122.88-5.12-1.28-7.68-6.4-6.4-10.88 1.28-5.12 6.4-7.68 10.88-6.4 4.48 1.28 104.32 28.16 147.2 133.76 65.28 163.84 35.2 389.76 33.92 399.36-0.64 3.84-4.48 7.04-8.96 7.04z m0-8.96z" fill="#3F4C75" p-id="4695"></path><path d="M567.04 635.52c-5.12 0-8.96-3.84-8.96-8.96 0-1.28-3.84-125.44 6.4-288 8.96-147.2 48.64-176 53.12-178.56 4.48-2.56 10.24-1.28 12.8 3.2 2.56 4.48 1.28 9.6-3.2 12.8-1.28 0.64-36.48 28.16-44.8 163.84-9.6 161.92-6.4 285.44-6.4 286.72 0.64 4.48-3.2 8.96-8.96 8.96 0.64 0 0 0 0 0z" fill="#3F4C75" p-id="4696"></path><path d="M282.88 584.32c-5.12 0-9.6-4.48-8.96-9.6 1.28-41.6 25.6-216.96 118.4-318.08C460.8 181.76 597.12 160 602.88 158.72c5.12-0.64 9.6 2.56 10.24 7.68 0.64 5.12-2.56 9.6-7.68 10.24-1.28 0-135.04 21.76-199.68 92.16-88.32 96.64-112.64 268.8-113.92 306.56 0 5.12-3.84 8.96-8.96 8.96z" fill="#3F4C75" p-id="4697"></path><path d="M677.76 174.08h-25.6c0-16.64-13.44-30.08-30.08-30.08s-30.08 13.44-30.08 30.08h-25.6c0-30.72 24.96-55.68 55.68-55.68 30.72 0 55.68 24.96 55.68 55.68zM796.8 696.96c-26.24 0-179.2-41.6-296.96-80.64-151.04-49.92-311.68-23.68-313.6-23.68-3.2 0.64-6.4-1.92-7.04-5.12-0.64-3.2 1.92-6.4 5.12-7.04 1.92 0 165.12-26.88 319.36 23.68 124.16 40.96 270.72 80 293.12 80 3.2 0 6.4 2.56 6.4 6.4-0.64 3.2-3.2 6.4-6.4 6.4z" fill="#3F4C75" p-id="4698"></path></svg>