<?xml version="1.0" standalone="no"?><!DOCTYPE svg PUBLIC "-//W3C//DTD SVG 1.1//EN" "http://www.w3.org/Graphics/SVG/1.1/DTD/svg11.dtd"><svg t="1694865666593" class="icon" viewBox="0 0 1024 1024" version="1.1" xmlns="http://www.w3.org/2000/svg" p-id="4541" xmlns:xlink="http://www.w3.org/1999/xlink" width="200" height="200"><path d="M1018.08355555 661.41297778c-0.25031111-6.25777778-0.54613333-13.75573333-0.54613333-22.85795556 0-194.61688889-117.22524445-364.06613333-272.32711111-416.47217777-1.71804445-46.58062222-43.16728889-84.0704-94.18524444-84.0704-38.78684445 0-73.19324445 21.35608889-87.66577778 54.39715555-0.98986667 2.2528-1.58151111 4.57386667-1.96835556 6.89493333-2.02524445 0.04551111-3.84568889 0.06826667-5.18826666 0.06826667-186.48177778 0-338.20444445 151.71128889-338.20444445 338.20444445 0 5.9392 0.2048 11.88977778 0.512 17.8176-36.90951111 13.312-87.7568 35.66933333-145.85173333 72.31715555-40.92586667 25.81617778-66.53724445 70.42844445-66.84444444 116.4288-0.22755555 36.12444445 15.26897778 56.99128889 28.31928888 68.10737778 17.80622222 15.17795555 42.0864 22.69866667 73.63697778 22.69866667 13.26648889 0 27.80728889-1.31982222 43.69066667-3.97084445 15.39413333-2.59413333 30.57208889-8.18062222 43.87271111-16.16782222 35.81724445-21.49262222 59.86986667-37.76284445 75.44604444-50.97244445C414.27626667 878.20515555 573.82684445 886.28337778 615.31022222 886.28337778c5.77991111 0 9.27288889-0.17066667 10.10346667-0.21617778 92.83128889 0 173.98897778-67.97084445 218.60124444-168.99413333 115.18862222 29.00195555 148.98062222 13.09582222 164.98915556-8.33991112 10.39928889-13.93777778 9.78488889-29.42293333 9.07946666-47.32017777z m-210.65955555-15.80373333c-14.35875555-4.36906667-29.95768889-9.36391111-46.99022222-15.09831112-66.51448889-22.44835555-99.97653333-37.66044445-126.8736-49.90293333-28.85404445-13.14133333-51.64373333-23.49511111-97.00693333-34.03093333-23.02862222-5.34755555-63.27182222-14.67733333-114.60835556-17.97688889 6.97457778-120.88888889 77.74435555-229.03466667 177.62986666-269.57368889 17.96551111 0.09102222 36.36337778 3.50435555 54.6816 10.26275556 83.08053333 30.56071111 167.18506667 133.19964445 167.18506667 270.19946666 0 37.50115555-5.06311111 73.23875555-14.01742222 106.12053334z m-129.47911111-438.44266667c-10.92266667-1.18328889-21.94773333-1.87733333-33.0752-1.87733333-0.05688889 0-0.1024 0.01137778-0.14791111 0.01137777-4.89244445-1.08088889-9.78488889-2.00248889-14.67733333-2.75342222 5.97333333-3.49297778 13.24373333-5.54097778 20.98062222-5.54097778 10.69511111 0 20.34346667 4.03911111 26.91982222 10.16035556zM276.98062222 537.58862222c0-126.72568889 84.93511111-233.81333333 200.8064-267.79875555-66.63964445 64.22755555-109.62488889 157.71875555-114.80177777 258.07075555-25.86168889 1.024-53.4528 3.90257778-82.30684445 9.55733333-0.36408889 0.05688889-1.75217778 0.32995555-3.66364445 0.72817778 0-0.19342222-0.03413333-0.37546667-0.03413333-0.55751111zM164.93226667 764.24533333c-7.03146667 4.22115555-15.06417778 7.17937778-23.22204445 8.54471112-47.5136 7.95306667-64.29582222-1.17191111-69.30204444-5.43857778-1.90008889-1.61564445-7.70275555-6.56497778-7.60035556-22.81244445 0.15928889-26.07786667 15.23484445-51.72337778 39.3216-66.91271111 4.56248889-2.87857778 9.07946667-5.66613333 13.53955556-8.35128889 0.2048 0.03413333 0.4096 0.07964445 0.6144 0.11377778 51.27964445 8.79502222 87.89333333 36.37475555 107.4176 54.85226667-10.80888889 8.27164445-29.35466667 21.13991111-60.76871111 40.00426666z m458.97955555 62.86222222c-1.91146667 0.21617778-190.33884445 8.00995555-342.2208-131.49297777-1.04675555-0.96711111-2.36657778-1.34257778-3.50435555-2.12764445-14.85937778-16.1792-43.97511111-43.40622222-87.25617778-63.01013333 60.09742222-27.48871111 99.62382222-34.89564445 100.52266666-35.06631111 105.63128889-20.66204445 190.81671111-0.88746667 231.76533334 8.62435556 39.6288 9.216 58.03804445 17.59004445 85.92497778 30.26488888 28.10311111 12.78862222 63.08977778 28.69475555 132.43733333 52.08746667 16.384 5.5296 31.39128889 10.28551111 45.78417778 14.70008889-35.45315555 75.9808-95.24337778 125.99751111-163.45315556 126.02026666z m239.96871111-165.85386666a455.54574222 455.54574222 0 0 0 16.56604445-121.76497778c0-77.18684445-23.46097778-150.58488889-63.12391111-209.49902222 83.84284445 68.74453333 141.2096 183.86488889 141.2096 308.56533333 0 10.02382222 0.32995555 18.30684445 0.59164444 25.17902223 0.12515555 3.10613333 0.26168889 6.43982222 0.3072 9.18186666-8.96568889 1.86595555-34.19022222 3.36782222-95.55057778-11.66222222z" fill="#666666" p-id="4542"></path><path d="M466.2272 737.75786667c-7.61173333-2.18453333-40.91448889-22.016-67.25404445-39.16231112-9.10222222-5.88231111-21.27644445-3.32231111-27.21564444 5.74577778-5.92782222 9.10222222-3.35644445 21.27644445 5.74577778 27.21564445 23.60888889 15.38275555 65.47911111 41.64266667 80.60017778 44.66915555 1.28568889 0.25031111 2.56 0.38684445 3.80017778 0.38684445 8.81777778 0 16.41813333-6.18951111 18.60266666-15.17795556 2.49173333-10.25137778-4.13013333-20.77582222-14.27911111-23.67715555zM701.56515555 720.93013333c-9.80764445-4.57386667-21.52675555-0.27306667-26.112 9.58008889-10.02382222 21.68604445-88.45084445 27.96657778-155.4432 20.09315556-10.80888889-1.31982222-20.54826667 6.47395555-21.82257777 17.24871111-1.26293333 10.79751111 6.4512 20.54826667 17.23733333 21.82257778 9.88728889 1.14915555 33.96266667 3.59537778 62.11128889 3.59537778 51.2 0 115.93955555-8.03271111 133.62062222-46.22791112 4.56248889-9.86453333 0.27306667-21.56088889-9.59146667-26.112z" fill="#666666" p-id="4543"></path></svg>