<?xml version="1.0" standalone="no"?><!DOCTYPE svg PUBLIC "-//W3C//DTD SVG 1.1//EN" "http://www.w3.org/Graphics/SVG/1.1/DTD/svg11.dtd"><svg t="1694004866585" class="icon" viewBox="0 0 1024 1024" version="1.1" xmlns="http://www.w3.org/2000/svg" p-id="917" xmlns:xlink="http://www.w3.org/1999/xlink" width="200" height="200"><path d="M482.750699 11.114734c12.430953-13.162185 32.174231-14.62465 46.067649-4.387395 2.193698 1.462465 3.656163 2.92493 5.84986 4.387395 0 0.731233 0.731233 1.462465 1.462465 1.462465l152.827595 153.558828c14.62465 14.62465 14.62465 37.292858 0 51.917509-13.893418 13.893418-37.292858 13.893418-51.186276 0l-92.866529-92.86653v652.990636c0 19.743278-16.087115 35.830393-35.830393 35.830393-21.205743 0-37.292858-16.087115-37.292858-36.561626v-652.259403l-92.135297 92.86653c-14.62465 14.62465-37.292858 14.62465-51.917509 0-14.62465-14.62465-14.62465-37.292858 0-51.917509L479.094537 14.770897c0.731233-1.462465 2.193698-2.193698 3.656162-3.656163z m467.98881 816.055486v-278.599588c0-20.47451 16.087115-36.561626 36.561625-36.561625s36.561626 16.087115 36.561626 36.561625v292.493006c0 24.861905-5.118628 48.261346-14.62465 70.929554-8.77479 21.936975-21.936975 41.680253-38.755324 58.498601-16.818348 16.818348-36.561626 29.980533-58.498601 38.755323a175.495803 175.495803 0 0 1-63.617228 14.624651H182.945369c-24.861905 0-48.261346-5.118628-70.929554-14.624651-21.936975-8.77479-41.680253-21.936975-58.498601-38.755323-16.818348-16.818348-29.980533-36.561626-38.755324-58.498601a175.495803 175.495803 0 0 1-14.62465-63.617229v-299.805331c0-20.47451 16.087115-36.561626 36.561626-36.561625s36.561626 16.087115 36.561625 36.561625v292.493006c0 29.980533 10.968488 55.573671 32.174231 77.510646 18.280813 18.280813 39.486556 28.518068 63.617229 31.442999 9.506023 0.731233 18.280813 0.731233 27.786835 0.731232h644.215845c29.980533 0 55.573671-10.968488 77.510647-32.174231 18.280813-18.280813 28.518068-39.486556 31.442998-63.617228 0.731233-9.506023 0.731233-18.280813 0.731233-27.786836z" p-id="918"></path></svg>